<svg width="24" height="24" viewBox="0 0 24 24" fill="none" xmlns="http://www.w3.org/2000/svg">
<path d="M3.49749 3.49206C4.60318 2.38078 5.92019 1.49967 7.37169 0.90013C8.8232 0.300592 10.3802 -0.00537612 11.9518 7.14834e-05C18.5367 7.14834e-05 23.9035 5.34005 23.9035 11.892C23.9035 13.992 23.3487 16.032 22.3116 17.832L24 24L17.6683 22.344C15.9196 23.292 13.9538 23.796 11.9518 23.796C5.36684 23.796 0 18.456 0 11.904C0 8.72404 1.24221 5.73605 3.49749 3.49206ZM11.9518 21.78C13.7367 21.78 15.4854 21.3 17.0171 20.4L17.3789 20.184L21.1417 21.168L20.1407 17.52L20.3819 17.148C21.3736 15.5724 21.9001 13.7511 21.9015 11.892C21.9015 6.44405 17.4392 2.00407 11.9638 2.00407C9.31056 2.00407 6.81407 3.03606 4.94473 4.90806C4.01912 5.82481 3.28559 6.91525 2.78666 8.11616C2.28773 9.31707 2.03333 10.6046 2.03819 11.904C2.01407 17.352 6.47638 21.78 11.9518 21.78ZM6.50051 14.388C6.80201 14.244 8.27337 13.524 8.5387 13.416C8.81608 13.32 9.00905 13.272 9.21407 13.56C9.4191 13.86 9.98593 14.532 10.1548 14.724C10.3236 14.928 10.5045 14.952 10.806 14.796C11.1075 14.652 12.0724 14.328 13.206 13.32C14.0985 12.528 14.6894 11.556 14.8704 11.256C15.0392 10.956 14.8945 10.8 14.7377 10.644C14.605 10.512 14.4362 10.296 14.2915 10.128C14.1467 9.96004 14.0864 9.82804 13.99 9.63604C13.8935 9.43204 13.9417 9.26404 14.0141 9.12004C14.0864 8.97605 14.6894 7.51205 14.9307 6.91205C15.1719 6.33605 15.4251 6.40805 15.606 6.39605H16.1849C16.39 6.39605 16.7035 6.46805 16.9809 6.76805C17.2462 7.06805 18.0181 7.78805 18.0181 9.25204C18.0181 10.716 16.9447 12.132 16.8 12.324C16.6553 12.528 14.6894 15.528 11.6985 16.812C10.9869 17.124 10.4322 17.304 9.99799 17.436C9.28643 17.664 8.63518 17.628 8.11658 17.556C7.53769 17.472 6.34372 16.836 6.10252 16.14C5.84925 15.444 5.84925 14.856 5.93367 14.724C6.01809 14.592 6.199 14.532 6.50051 14.388Z" fill="black"/>
</svg>
