<svg width="24" height="24" viewBox="0 0 24 24" fill="none" xmlns="http://www.w3.org/2000/svg">
<path d="M5.80174 16.4757L5.80335 16.4755C6.12733 16.4375 6.45572 16.4733 6.76385 16.5804C7.07197 16.6875 7.35182 16.863 7.58237 17.0938L7.58255 17.094L10.0408 19.5523L10.2975 19.809L10.621 19.6444C14.5081 17.6675 17.6675 14.5081 19.6444 10.621L19.809 10.2974L19.5523 10.0408L17.0807 7.5691C16.6143 7.10272 16.3862 6.45238 16.4623 5.78857L16.8497 2.4225C16.8497 2.42246 16.8497 2.42243 16.8497 2.4224C16.9113 1.89258 17.1656 1.40391 17.5641 1.04943C17.9627 0.694921 18.4777 0.499368 19.0111 0.500002L19.0117 0.500002L21.323 0.500002C22.5633 0.500002 23.5706 1.53116 23.496 2.73467C22.8036 13.8924 13.8795 22.8035 2.73478 23.496L5.80174 16.4757ZM5.80174 16.4757L2.41052 16.8629C2.41027 16.8629 2.41002 16.8629 2.40977 16.863C1.30867 16.9942 0.489328 17.9183 0.500105 19.0068H0.50013M5.80174 16.4757L0.50013 19.0068M0.50013 19.0068V19.0117M0.50013 19.0068V19.0117M0.50013 19.0117V21.323C0.50013 22.5632 1.53123 23.5706 2.73469 23.4961L0.50013 19.0117Z" fill="white" stroke="white"/>
</svg>
