<svg width="13" height="15" viewBox="0 0 13 15" fill="none" xmlns="http://www.w3.org/2000/svg">
<path d="M12.3864 2.68182C11.3563 2.40691 10.3501 2.0497 9.37727 1.61364C8.4202 1.19846 7.49629 0.710674 6.61364 0.154545L6.36364 0L6.11818 0.159091C5.23553 0.71522 4.31162 1.20301 3.35455 1.61818C2.38013 2.05293 1.37234 2.40862 0.340909 2.68182L0 2.76818V6.55909C0 12.6455 6.15 14.9227 6.20909 14.9455L6.36364 15L6.51818 14.9455C6.58182 14.9455 12.7273 12.65 12.7273 6.55909V2.76818L12.3864 2.68182ZM11.8182 6.55909C11.8182 11.5591 7.27273 13.6545 6.36364 14.0273C5.45455 13.6545 0.909091 11.5545 0.909091 6.55909V3.47273C1.86794 3.19707 2.80655 2.85535 3.71818 2.45C4.62987 2.05591 5.51373 1.60031 6.36364 1.08636C7.21355 1.60031 8.0974 2.05591 9.00909 2.45C9.92072 2.85535 10.8593 3.19707 11.8182 3.47273V6.55909Z" fill="white"/>
<path d="M3.12716 6.98627C3.04021 6.91181 2.92835 6.87289 2.81395 6.87731C2.69956 6.88173 2.59104 6.92915 2.51009 7.01011C2.42913 7.09106 2.38171 7.19958 2.37729 7.31397C2.37287 7.42837 2.41179 7.54023 2.48625 7.62718L5.21352 10.3545L10.1817 5.57718C10.2685 5.49279 10.3182 5.37738 10.3199 5.25634C10.3216 5.13529 10.2752 5.01852 10.1908 4.93173C10.1064 4.84493 9.991 4.79521 9.86995 4.7935C9.74891 4.7918 9.63214 4.83825 9.54534 4.92264L5.2408 9.09991L3.12716 6.98627Z" fill="white"/>
</svg>
