<svg width="15" height="17" viewBox="0 0 15 17" fill="none" xmlns="http://www.w3.org/2000/svg">
<path d="M6.63153 6.14954H8.09853V4.58254H6.63153M7.36503 14.768C4.13029 14.768 1.49703 11.9553 1.49703 8.50004C1.49703 5.0448 4.13029 2.23204 7.36503 2.23204C10.5998 2.23204 13.233 5.0448 13.233 8.50004C13.233 11.9553 10.5998 14.768 7.36503 14.768ZM7.36503 0.665039C6.40178 0.665039 5.44797 0.867697 4.55805 1.26144C3.66812 1.65519 2.85952 2.23231 2.1784 2.95986C0.802822 4.42921 0.0300293 6.42207 0.0300293 8.50004C0.0300293 10.578 0.802822 12.5709 2.1784 14.0402C2.85952 14.7678 3.66812 15.3449 4.55805 15.7386C5.44797 16.1324 6.40178 16.335 7.36503 16.335C9.31039 16.335 11.1761 15.5096 12.5517 14.0402C13.9272 12.5709 14.7 10.578 14.7 8.50004C14.7 7.47113 14.5103 6.4523 14.1417 5.50171C13.7731 4.55113 13.2328 3.6874 12.5517 2.95986C11.8705 2.23231 11.0619 1.65519 10.172 1.26144C9.28209 0.867697 8.32828 0.665039 7.36503 0.665039ZM6.63153 12.4175H8.09853V7.71654H6.63153V12.4175Z" fill="white"/>
</svg>
