<svg width="16" height="17" viewBox="0 0 16 17" fill="none" xmlns="http://www.w3.org/2000/svg">
<path d="M3.47052 4.5293H2.64701C2.2102 4.5293 1.79127 4.71522 1.4824 5.04618C1.17352 5.37713 1 5.82599 1 6.29403V14.2353C1 14.7034 1.17352 15.1522 1.4824 15.4832C1.79127 15.8141 2.2102 16.0001 2.64701 16.0001H10.0586C10.4954 16.0001 10.9143 15.8141 11.2232 15.4832C11.5321 15.1522 11.7056 14.7034 11.7056 14.2353V13.353" stroke="white" stroke-width="1.5" stroke-linecap="round" stroke-linejoin="round"/>
<path d="M10.8825 2.76483L13.353 5.41193M14.4935 4.16338C14.8179 3.81586 15.0001 3.34453 15.0001 2.85307C15.0001 2.3616 14.8179 1.89027 14.4935 1.54275C14.1692 1.19523 13.7293 1 13.2706 1C12.812 1 12.3721 1.19523 12.0477 1.54275L5.11792 8.9414V11.5885H7.58844L14.4935 4.16338Z" stroke="white" stroke-width="1.5" stroke-linecap="round" stroke-linejoin="round"/>
</svg>
