<svg width="15" height="15" viewBox="0 0 15 15" fill="none" xmlns="http://www.w3.org/2000/svg">
<path fill-rule="evenodd" clip-rule="evenodd" d="M7.3613 1.60765C6.92087 1.59956 6.4832 1.67988 6.07333 1.84399C5.66345 2.00811 5.28943 2.25281 4.97266 2.56409C4.65589 2.87537 4.4026 3.24712 4.22727 3.65806C4.05194 4.069 3.95802 4.51106 3.95089 4.95895V9.64306C3.95089 9.92721 3.83989 10.1997 3.64231 10.4006C3.44473 10.6016 3.17675 10.7144 2.89732 10.7144H1.58036C1.16122 10.7144 0.75925 10.5451 0.462876 10.2437C0.166501 9.94236 0 9.53359 0 9.10737L0 6.96459C0 6.53837 0.166501 6.1296 0.462876 5.82821C0.75925 5.52683 1.16122 5.35751 1.58036 5.35751H2.37054V4.93967C2.38015 4.28119 2.51723 3.63108 2.77394 3.02648C3.03065 2.42187 3.40198 1.87462 3.8667 1.41597C4.33142 0.957314 4.88044 0.596249 5.4824 0.353393C6.08436 0.110537 6.72747 -0.00935349 7.375 0.000569243C8.02253 -0.00935349 8.66564 0.110537 9.2676 0.353393C9.86956 0.596249 10.4186 0.957314 10.8833 1.41597C11.348 1.87462 11.7193 2.42187 11.9761 3.02648C12.2328 3.63108 12.3699 4.28119 12.3795 4.93967V5.35751H13.1696C13.5888 5.35751 13.9908 5.52683 14.2871 5.82821C14.5835 6.1296 14.75 6.53837 14.75 6.96459V9.10737C14.75 9.53359 14.5835 9.94236 14.2871 10.2437C13.9908 10.5451 13.5888 10.7144 13.1696 10.7144H12.3795V11.2501C12.3796 11.9741 12.1176 12.6728 11.6434 13.2129C11.1693 13.753 10.5162 14.0966 9.80875 14.1782C9.67137 14.4277 9.47104 14.6353 9.22843 14.7798C8.98582 14.9242 8.70971 15.0002 8.42857 15H6.84821C6.42908 15 6.02711 14.8307 5.73073 14.5293C5.43436 14.2279 5.26786 13.8191 5.26786 13.3929C5.26786 12.9667 5.43436 12.5579 5.73073 12.2565C6.02711 11.9552 6.42908 11.7858 6.84821 11.7858H8.42857C8.99961 11.7858 9.50005 12.0933 9.77714 12.5551C10.0675 12.4872 10.3267 12.3212 10.5123 12.0842C10.698 11.8472 10.7991 11.5531 10.7991 11.2501V4.95788C10.7919 4.50768 10.697 4.06341 10.5199 3.65074C10.3428 3.23807 10.087 2.86519 9.76731 2.55365C9.44763 2.24212 9.0704 1.99811 8.65743 1.83574C8.24445 1.67336 7.80392 1.59584 7.3613 1.60765Z" fill="white"/>
</svg>
