<svg width="18" height="13" viewBox="0 0 18 13" fill="none" xmlns="http://www.w3.org/2000/svg">
<path d="M4.4616 1.39258L8.95193 4.89689L13.5449 1.39258V1.39353L13.5394 1.39826V6.30525L9.00372 9.88533L4.4616 6.44353V1.39258Z" fill="#F21D53"/>
<path d="M3.28244 0.539789L4.46167 1.39219V6.44314L0.75102 3.59423V1.87806C0.75102 1.87806 1.20144 -0.573068 3.28244 0.539789Z" fill="#8E98A8"/>
<path d="M4.46167 6.44364V12.9948H1.61764C1.61764 12.9948 0.808361 12.9115 0.750093 11.989V3.59473L4.46167 6.44364Z" fill="#252C63"/>
<path d="M13.5392 12.9997V6.30454L13.5449 6.2998L13.5392 12.9997Z" fill="#F21D53"/>
<path d="M13.5449 1.3934L14.7177 0.545734C16.7987 -0.567123 17.25 1.88306 17.25 1.88306V3.59922L13.5449 6.30039V1.3934Z" fill="#F21D53"/>
<path d="M13.5449 1.39355V6.30054L13.5392 6.30528V1.39829L13.5449 1.39355Z" fill="#F21D53"/>
<path d="M17.25 3.59961V11.9939C17.1927 12.9173 16.3825 12.9997 16.3825 12.9997H13.5384L13.5449 6.29983L17.25 3.59961Z" fill="#252C63"/>
</svg>
