<svg width="15" height="17" viewBox="0 0 15 17" fill="none" xmlns="http://www.w3.org/2000/svg">
<path d="M6.63129 6.14954H8.09829V4.58254H6.63129M7.36479 14.768C4.13005 14.768 1.49679 11.9553 1.49679 8.50004C1.49679 5.0448 4.13005 2.23204 7.36479 2.23204C10.5995 2.23204 13.2328 5.0448 13.2328 8.50004C13.2328 11.9553 10.5995 14.768 7.36479 14.768ZM7.36479 0.665039C6.40154 0.665039 5.44773 0.867697 4.5578 1.26144C3.66788 1.65519 2.85927 2.23231 2.17816 2.95986C0.802578 4.42921 0.0297852 6.42207 0.0297852 8.50004C0.0297852 10.578 0.802578 12.5709 2.17816 14.0402C2.85927 14.7678 3.66788 15.3449 4.5578 15.7386C5.44773 16.1324 6.40154 16.335 7.36479 16.335C9.31015 16.335 11.1758 15.5096 12.5514 14.0402C13.927 12.5709 14.6998 10.578 14.6998 8.50004C14.6998 7.47113 14.5101 6.4523 14.1414 5.50171C13.7728 4.55113 13.2325 3.6874 12.5514 2.95986C11.8703 2.23231 11.0617 1.65519 10.1718 1.26144C9.28185 0.867697 8.32803 0.665039 7.36479 0.665039ZM6.63129 12.4175H8.09829V7.71654H6.63129V12.4175Z" fill="black"/>
</svg>
