<svg width="19" height="18" viewBox="0 0 19 18" fill="none" xmlns="http://www.w3.org/2000/svg">
<path d="M18.1657 16.25L14.4654 12.5833C15.3905 11.25 15.9791 9.6667 15.9791 7.9167C15.9791 3.58336 12.3628 0 7.9895 0C3.61631 0 0 3.58336 0 7.9167C0 12.25 3.61631 15.8334 7.9895 15.8334C9.75561 15.8334 11.3536 15.25 12.6992 14.3333L16.3996 18L18.1657 16.25ZM2.52301 8C2.52301 5.00001 4.96192 2.58334 7.9895 2.58334C11.0171 2.58334 13.456 5.00001 13.456 8C13.456 11 11.0171 13.4167 7.9895 13.4167C4.96192 13.4167 2.52301 11 2.52301 8Z" fill="black"/>
</svg>
