<svg width="15" height="15" viewBox="0 0 15 15" fill="none" xmlns="http://www.w3.org/2000/svg">
<path d="M9.0354 1.2163C9.05743 1.18756 9.08474 1.1636 9.11578 1.14579C9.14682 1.12799 9.18096 1.1167 9.21625 1.11257C9.25153 1.10844 9.28726 1.11155 9.32137 1.12172C9.35549 1.1319 9.38731 1.14894 9.41502 1.17185L9.99656 1.65294L7.87017 4.44501H9.24002L10.8382 2.34735L12.1865 3.46173C12.2147 3.48507 12.2381 3.51404 12.2553 3.54692C12.2724 3.5798 12.283 3.61591 12.2863 3.65309C12.2896 3.69028 12.2856 3.72777 12.2746 3.76332C12.2635 3.79888 12.2457 3.83178 12.222 3.86004L11.7331 4.44501H13.1406C13.326 4.156 13.4 3.80593 13.348 3.46354C13.296 3.12116 13.1218 2.8112 12.8596 2.59455L10.0881 0.304678C9.94965 0.190316 9.79066 0.105307 9.62027 0.0545352C9.44987 0.00376343 9.27144 -0.01177 9.09521 0.00882734C8.91898 0.0294247 8.74843 0.0857467 8.59337 0.174557C8.4383 0.263368 8.30178 0.382916 8.19163 0.526332L5.18325 4.44501H6.55686L9.0354 1.2163ZM10.1322 9.44474C9.98944 9.44474 9.85248 9.50327 9.7515 9.60745C9.65052 9.71163 9.59379 9.85293 9.59379 10.0003C9.59379 10.1476 9.65052 10.2889 9.7515 10.3931C9.85248 10.4973 9.98944 10.5558 10.1322 10.5558H11.7476C11.8904 10.5558 12.0274 10.4973 12.1284 10.3931C12.2294 10.2889 12.2861 10.1476 12.2861 10.0003C12.2861 9.85293 12.2294 9.71163 12.1284 9.60745C12.0274 9.50327 11.8904 9.44474 11.7476 9.44474H10.1322ZM2.05533 2.77843C1.6269 2.77843 1.21602 2.95402 0.913077 3.26656C0.610133 3.57911 0.439941 4.00301 0.439941 4.44501V12.5001C0.439941 13.1631 0.695229 13.799 1.14964 14.2678C1.60406 14.7366 2.22038 15 2.86302 15H12.0169C12.6595 15 13.2758 14.7366 13.7302 14.2678C14.1847 13.799 14.4399 13.1631 14.4399 12.5001V7.5004C14.4399 6.8374 14.1847 6.20155 13.7302 5.73273C13.2758 5.26392 12.6595 5.00054 12.0169 5.00054H2.05533C1.91252 5.00054 1.77556 4.94201 1.67458 4.83783C1.5736 4.73365 1.51686 4.59235 1.51686 4.44501C1.51686 4.29768 1.5736 4.15638 1.67458 4.0522C1.77556 3.94801 1.91252 3.88949 2.05533 3.88949H4.52148L5.38086 2.77843H2.05533ZM1.51686 12.5001V6.01715C1.6854 6.07826 1.86686 6.11159 2.05533 6.11159H12.0169C12.3739 6.11159 12.7163 6.25791 12.9687 6.51836C13.2212 6.77882 13.363 7.13207 13.363 7.5004V12.5001C13.363 12.8685 13.2212 13.2217 12.9687 13.4822C12.7163 13.7426 12.3739 13.8889 12.0169 13.8889H2.86302C2.506 13.8889 2.1636 13.7426 1.91114 13.4822C1.65869 13.2217 1.51686 12.8685 1.51686 12.5001Z" fill="black"/>
</svg>
