<svg width="13" height="15" viewBox="0 0 13 15" fill="none" xmlns="http://www.w3.org/2000/svg">
<path opacity="0.2" d="M12.1151 4.61561H8.07666V0.577148L12.1151 4.61561Z" fill="black"/>
<path d="M12.5236 4.20721L8.4851 0.16875C8.43148 0.115192 8.36783 0.0727223 8.2978 0.0437676C8.22776 0.014813 8.15271 -5.94149e-05 8.07692 1.78384e-07H1.15385C0.847827 1.78384e-07 0.554342 0.121566 0.337954 0.337954C0.121566 0.554342 0 0.847827 0 1.15385V13.8462C0 14.1522 0.121566 14.4457 0.337954 14.662C0.554342 14.8784 0.847827 15 1.15385 15H11.5385C11.8445 15 12.138 14.8784 12.3544 14.662C12.5707 14.4457 12.6923 14.1522 12.6923 13.8462V4.61538C12.6924 4.5396 12.6775 4.46455 12.6485 4.39451C12.6196 4.32447 12.5771 4.26083 12.5236 4.20721ZM8.65385 1.96947L10.7228 4.03846H8.65385V1.96947ZM11.5385 13.8462H1.15385V1.15385H7.5V4.61538C7.5 4.76839 7.56078 4.91514 7.66898 5.02333C7.77717 5.13152 7.92391 5.19231 8.07692 5.19231H11.5385V13.8462ZM9.23077 8.07692C9.23077 8.22993 9.16999 8.37668 9.06179 8.48487C8.9536 8.59306 8.80686 8.65385 8.65385 8.65385H4.03846C3.88545 8.65385 3.73871 8.59306 3.63052 8.48487C3.52232 8.37668 3.46154 8.22993 3.46154 8.07692C3.46154 7.92391 3.52232 7.77717 3.63052 7.66898C3.73871 7.56078 3.88545 7.5 4.03846 7.5H8.65385C8.80686 7.5 8.9536 7.56078 9.06179 7.66898C9.16999 7.77717 9.23077 7.92391 9.23077 8.07692ZM9.23077 10.3846C9.23077 10.5376 9.16999 10.6844 9.06179 10.7926C8.9536 10.9008 8.80686 10.9615 8.65385 10.9615H4.03846C3.88545 10.9615 3.73871 10.9008 3.63052 10.7926C3.52232 10.6844 3.46154 10.5376 3.46154 10.3846C3.46154 10.2316 3.52232 10.0849 3.63052 9.97667C3.73871 9.86847 3.88545 9.80769 4.03846 9.80769H8.65385C8.80686 9.80769 8.9536 9.86847 9.06179 9.97667C9.16999 10.0849 9.23077 10.2316 9.23077 10.3846Z" fill="black"/>
</svg>
