<svg width="22" height="22" viewBox="0 0 22 22" fill="none" xmlns="http://www.w3.org/2000/svg">
<path d="M13.423 21.422V20.422C15.373 20.422 17.024 19.7463 18.376 18.395C19.728 17.043 20.404 15.392 20.404 13.442H21.404C21.404 14.5507 21.1953 15.59 20.778 16.56C20.3607 17.53 19.7927 18.3743 19.074 19.093C18.3553 19.8117 17.511 20.3797 16.541 20.797C15.571 21.2143 14.5317 21.422 13.423 21.422ZM13.423 18.038V17.038C14.423 17.038 15.2723 16.6887 15.971 15.99C16.6697 15.2913 17.019 14.442 17.019 13.442H18.019C18.019 14.71 17.57 15.793 16.672 16.691C15.774 17.589 14.691 18.038 13.423 18.038ZM5.05 20.259C4.85133 20.259 4.659 20.225 4.473 20.157C4.287 20.089 4.11967 19.9827 3.971 19.838L0.421 16.288C0.276333 16.1393 0.169667 15.972 0.101 15.786C0.0336666 15.6 0 15.4077 0 15.209C0 15.0063 0.034 14.8163 0.102 14.639C0.17 14.4617 0.276667 14.3003 0.422 14.155L3.212 11.365C3.50533 11.0717 3.86167 10.924 4.281 10.922C4.70033 10.92 5.05667 11.0657 5.35 11.359L6.811 12.821L8.223 11.409L6.761 9.948C6.46767 9.65467 6.321 9.3 6.321 8.884C6.321 8.46867 6.46767 8.11433 6.761 7.821L7.801 6.781C8.095 6.48767 8.44767 6.341 8.859 6.341C9.27033 6.341 9.62233 6.48767 9.915 6.781L11.377 8.242L12.788 6.83L11.327 5.369C11.0337 5.07567 10.887 4.72033 10.887 4.303C10.887 3.88567 11.0337 3.53 11.327 3.236L14.117 0.446C14.2657 0.297333 14.43 0.185667 14.61 0.111C14.7893 0.0369999 14.9783 0 15.177 0C15.3757 0 15.567 0.034 15.751 0.102C15.935 0.17 16.1013 0.278333 16.25 0.427L19.8 3.977C19.9487 4.12167 20.056 4.286 20.122 4.47C20.1887 4.654 20.222 4.84733 20.222 5.05C20.222 5.24867 20.1887 5.441 20.122 5.627C20.056 5.81233 19.9487 5.97967 19.8 6.129L17.01 8.919C16.7167 9.21233 16.361 9.359 15.943 9.359C15.5257 9.359 15.1703 9.21233 14.877 8.919L13.415 7.457L12.004 8.869L13.465 10.33C13.7583 10.6233 13.9043 10.979 13.903 11.397C13.901 11.8143 13.7533 12.1697 13.46 12.463L12.444 13.479C12.1507 13.7723 11.7953 13.9223 11.378 13.929C10.9607 13.9357 10.605 13.792 10.311 13.498L8.85 12.036L7.438 13.448L8.9 14.909C9.19333 15.2023 9.339 15.559 9.337 15.979C9.33567 16.3977 9.188 16.754 8.894 17.048L6.104 19.838C5.95867 19.9827 5.79733 20.0893 5.62 20.158C5.44267 20.2253 5.25267 20.259 5.05 20.259ZM4.723 19.169C4.813 19.259 4.922 19.304 5.05 19.304C5.178 19.304 5.287 19.259 5.377 19.169L6.485 18.061L2.223 13.8L1.115 14.907C1.02567 14.997 0.981 15.106 0.981 15.234C0.981 15.3627 1.02567 15.4717 1.115 15.561L4.723 19.169ZM7.117 17.409L8.225 16.302C8.315 16.212 8.36 16.103 8.36 15.975C8.36 15.8463 8.315 15.7373 8.225 15.648L4.617 12.04C4.52767 11.95 4.41867 11.905 4.29 11.905C4.162 11.905 4.053 11.95 3.963 12.04L2.856 13.148L7.117 17.409ZM11.044 12.809C11.134 12.899 11.243 12.944 11.371 12.944C11.499 12.944 11.608 12.899 11.698 12.809L12.79 11.717C12.88 11.627 12.925 11.518 12.925 11.39C12.925 11.262 12.88 11.153 12.79 11.063L9.183 7.455C9.093 7.36567 8.984 7.321 8.856 7.321C8.72733 7.321 8.61833 7.36567 8.529 7.455L7.436 8.548C7.34667 8.63733 7.302 8.74633 7.302 8.875C7.302 9.003 7.34667 9.112 7.436 9.202L11.044 12.809ZM15.61 8.225C15.6993 8.31433 15.808 8.359 15.936 8.359C16.0647 8.359 16.1737 8.31433 16.263 8.225L17.371 7.117L13.11 2.855L12.002 3.963C11.912 4.053 11.867 4.162 11.867 4.29C11.867 4.418 11.912 4.527 12.002 4.617L15.61 8.225ZM18.023 6.485L19.131 5.377C19.2203 5.287 19.265 5.178 19.265 5.05C19.265 4.92133 19.2203 4.81233 19.131 4.723L15.523 1.115C15.433 1.025 15.324 0.98 15.196 0.98C15.068 0.98 14.959 1.025 14.869 1.115L13.761 2.223L18.023 6.485Z" fill="#111111"/>
</svg>
